<svg t="1694938549651" class="icon" viewBox="0 0 1024 1024" version="1.1" xmlns="http://www.w3.org/2000/svg" p-id="43689" width="200" height="200"><path d="M857.4 241.2L826 224.1c-0.1 0-0.2-0.1-0.2-0.1-0.4-0.2-0.8-0.3-1.2-0.4h-0.2c-0.8-0.2-1.6-0.2-2.4-0.1l-652 91.6c-0.7 0.1-1.3 0.3-2 0.6-0.1 0-0.2 0-0.2 0.1-0.1 0.1-0.3 0.2-0.4 0.2-0.2 0.1-0.4 0.2-0.5 0.3-0.1 0.1-0.2 0.1-0.3 0.2-0.2 0.2-0.4 0.3-0.7 0.5l-0.2 0.2h-0.1c-0.3 0.2-0.5 0.5-0.8 0.8l-0.2 0.2c-0.1 0.1-0.1 0.2-0.2 0.3-0.1 0.1-0.2 0.3-0.3 0.4-0.1 0.2-0.2 0.4-0.4 0.6-0.1 0.1-0.1 0.2-0.2 0.3l-0.1 0.1c-0.2 0.4-0.4 0.8-0.5 1.2 0 0 0 0.1-0.1 0.1-0.4 1-0.6 2.1-0.6 3.3l-0.9 468.3c0 1.5 0.4 2.8 1 3.9s1.5 2 2.6 2.6l31.4 17.1c-2.1-1.2-3.6-3.6-3.6-6.5l0.9-468.3c0-1.1 0.2-2.2 0.6-3.3v-0.1c0.2-0.5 0.4-0.9 0.6-1.3 0.1-0.1 0.1-0.2 0.2-0.3 0.2-0.3 0.4-0.7 0.7-1 0.1-0.1 0.1-0.2 0.2-0.3 0.3-0.4 0.6-0.7 1-1l0.2-0.2c0.3-0.2 0.6-0.5 0.9-0.7 0.2-0.1 0.4-0.2 0.5-0.3 0.2-0.1 0.4-0.2 0.7-0.3 0.6-0.3 1.3-0.5 2-0.6l652-91.6c0.8-0.1 1.7 0 2.4 0.1 0.7 0 1.3 0.2 1.8 0.5z" fill="#7BB7FF" p-id="43690"></path><path d="M853.3 240.5c4.2-0.6 7.6 2.6 7.6 7.2l-0.8 468.3c0 4.6-3.4 8.8-7.6 9.4l-652 91.6c-4.2 0.6-7.6-2.6-7.6-7.2l0.9-468.3c0-4.6 3.4-8.8 7.6-9.4l651.9-91.6z" fill="#D5E1FF" p-id="43691"></path><path d="M542.5 722c1.1-0.2 2 0.7 2 1.9v8.3c0 1.2-0.9 2.3-2 2.4l-312 43.9c-1.1 0.2-2-0.7-2-1.9v-8.3c0-1.1 0.9-2.3 2-2.4l312-43.9zM713.6 698.1c1.1-0.2 2 0.7 2 1.9v8.3c0 1.1-0.9 2.3-2 2.4l-19.2 2.7c-1.1 0.2-2-0.7-2-1.9v-8.3c0-1.2 0.9-2.3 2-2.4l19.2-2.7zM770.6 690.1c1.1-0.2 2 0.7 2 1.9v8.3c0 1.2-0.9 2.3-2 2.4l-19.2 2.7c-1.1 0.2-2-0.7-2-1.9v-8.3c0-1.2 0.9-2.3 2-2.4l19.2-2.7zM827.6 681.8c1.1-0.2 2 0.7 2 1.9v8.3c0 1.2-0.9 2.3-2 2.4l-19.2 2.7c-1.1 0.2-2-0.7-2-1.9v-8.3c0-1.1 0.9-2.3 2-2.4l19.2-2.7z" fill="#D5E1FF" p-id="43692"></path><path d="M824.5 265.9c3.9-0.5 6.9 2.4 6.9 6.6v368.3c0 4.2-3.1 8-7 8.5L229.7 733c-3.9 0.5-6.9-2.4-6.9-6.6l0.3-368.4c0-4.2 3.1-8 7-8.5l594.4-83.6z" fill="#CCDDFF" p-id="43693"></path><path d="M222.8 725.6c0.1 0 0 5 3.4 7 0.3 0.2 1.1 0.4 1.1 0.4 0.6 0.1 1.3 0.2 1.9 0.1l595.9-83.6c0.6-0.1 1.1-0.3 1.6-0.5 0.1 0 0.1 0 0.2-0.1s0.2-0.1 0.3-0.2c0.1-0.1 0.3-0.2 0.4-0.3 0.1 0 0.1-0.1 0.2-0.1 0.2-0.1 0.4-0.3 0.5-0.4 0.1 0 0.1-0.1 0.2-0.1l0.6-0.6s0.1-0.1 0.1-0.2l0.2-0.2 0.3-0.3c0.1-0.1 0.2-0.3 0.3-0.5 0-0.1 0.1-0.2 0.2-0.2 0 0 0-0.1 0.1-0.1 0.2-0.3 0.3-0.6 0.4-0.9v-0.1c0.3-0.8 0.5-1.7 0.5-2.6l0.7-370.2c0-3.1-2.7-5.6-5.8-5.3l-19.9 2.2c0.1 1.4 0.4 4.3 0.4 6.7l-0.6 352.6c0 0.9-0.2 1.8-0.5 2.6v0.1c-0.1 0.4-0.3 0.7-0.5 1.1 0 0.1-0.1 0.2-0.2 0.2-0.2 0.3-0.3 0.5-0.5 0.8-0.1 0.1-0.1 0.2-0.2 0.2-0.2 0.3-0.5 0.6-0.8 0.8-0.1 0-0.1 0.1-0.2 0.1-0.2 0.2-0.5 0.4-0.7 0.5-0.1 0.1-0.3 0.2-0.4 0.3-0.2 0.1-0.4 0.2-0.5 0.3-0.5 0.2-1 0.4-1.6 0.5l-569.4 79.9c-0.7 0.1-7.1 1.2-7.7 1.1v9z" fill="#7BB7FF" p-id="43694"></path><path d="M645.2 365.7s-0.1 0-0.1-0.1c-0.2-0.1-0.5-0.2-0.8-0.3h-0.2c-0.5-0.1-1.1-0.2-1.7-0.1-0.5 0.1-1 0.2-1.5 0.4h-0.1c-0.3 0.1-0.5 0.3-0.8 0.5h-0.1s-0.1 0-0.1 0.1c-0.1 0.1-0.3 0.2-0.4 0.3l-0.4 0.4-0.1 0.1s0 0.1-0.1 0.1c-0.1 0.1-0.1 0.2-0.2 0.2-0.1 0.2-0.2 0.3-0.3 0.5-0.1 0.1-0.1 0.3-0.2 0.4l-92.2 173.2c-0.2 0.4-0.4 0.8-0.7 1.2 0 0 0 0.1-0.1 0.1l-0.9 0.9-0.1 0.1c-0.3 0.2-0.7 0.4-1 0.6-0.5 0.2-1 0.4-1.5 0.4-0.6 0.1-1.1 0-1.7-0.1-0.4-0.1-0.7-0.2-1.1-0.4l13.8 7.5s0.1 0 0.1 0.1c0.2 0.1 0.5 0.2 0.8 0.3h0.2c0.5 0.1 1.1 0.2 1.7 0.1 0.5-0.1 1-0.2 1.5-0.4h0.1c0.3-0.1 0.6-0.3 0.8-0.5l0.1-0.1 0.1-0.1c0.1-0.1 0.3-0.2 0.4-0.3 0.2-0.1 0.3-0.3 0.4-0.4l0.1-0.1s0-0.1 0.1-0.1c0.1-0.1 0.1-0.2 0.2-0.2 0.1-0.2 0.2-0.3 0.3-0.5 0.1-0.1 0.2-0.3 0.2-0.5l92.2-173c0.2-0.4 0.4-0.8 0.7-1.2 0 0 0-0.1 0.1-0.1l0.9-0.9s0.1 0 0.1-0.1c0.3-0.2 0.7-0.4 1-0.6 0.5-0.2 1-0.4 1.5-0.4 0.6-0.1 1.2 0 1.7 0.1 0.4 0.1 0.8 0.2 1.1 0.4l-13.8-7.5zM490.3 496.2c-0.2-0.1-0.5-0.2-0.8-0.3h-0.2c-0.5-0.1-1.1-0.2-1.7-0.1-0.5 0.1-1.1 0.2-1.6 0.5l-0.6 0.3s-0.1 0-0.1 0.1c0 0-0.1 0-0.1 0.1-0.2 0.1-0.4 0.3-0.6 0.4-0.2 0.1-0.3 0.3-0.4 0.4-0.1 0.1-0.3 0.3-0.4 0.5-0.1 0.1-0.2 0.2-0.2 0.4l-103 165.8-0.1 0.1c-0.1 0.2-0.2 0.4-0.3 0.7-0.1 0.2-0.1 0.3-0.1 0.5-0.1 0.2-0.1 0.4-0.1 0.6v0.9c0 0.2 0 0.4 0.1 0.5 0.1 0.3 0.2 0.6 0.4 0.8 0.1 0.1 0.1 0.3 0.2 0.4 0.3 0.4 0.6 0.7 1.1 0.9l13.8 7.5c-0.4-0.2-0.8-0.5-1.1-0.9-0.1-0.1-0.1-0.3-0.2-0.4-0.2-0.3-0.3-0.5-0.4-0.8-0.1-0.2-0.1-0.4-0.1-0.5 0-0.3-0.1-0.6 0-0.9 0-0.2 0.1-0.4 0.1-0.6 0.1-0.4 0.2-0.9 0.5-1.3l103-165.8c0.4-0.8 1-1.4 1.7-1.8 0 0 0.1 0 0.1-0.1 0.7-0.4 1.4-0.7 2.2-0.8 0.6-0.1 1.1 0 1.7 0.1 0.4 0.1 0.8 0.2 1.1 0.4l-13.8-7.5c0-0.1 0-0.1-0.1-0.1z" fill="#203040" p-id="43695"></path><path d="M655.7 371.8c1.8-0.2 3.5 0.4 4.3 2l142 240.5c1.8 2.6-0.5 6.5-4 7l-54.1 7.6-62 8.7-47.9 6.7-134.9 19-101.9 14.3c-3.6 0.5-5.8-2.7-4-5.9l103.4-166.3c0.9-1.5 2.5-2.5 4-2.7 1.6-0.2 3.1 0.3 4 1.6l46 46.1c0.9 1.3 2.5 1.8 4 1.6 1.8-0.2 3.5-1.4 4.3-3.3L651.4 375c0.8-1.8 2.5-3 4.3-3.2z" fill="#344D66" p-id="43696" data-spm-anchor-id="a313x.search_index.0.i0.57f83a81CPZFI4"></path><path d="M292.3 430.7c0.1-1.1 0.3-2.2 0.5-3.2 0.1-0.7 0.3-1.3 0.4-2 0.2-1 0.4-1.9 0.7-2.9 0.2-0.7 0.4-1.4 0.7-2 0.3-0.9 0.5-1.8 0.9-2.6 0.9-2.4 1.9-4.6 3.1-6.8 0.2-0.4 0.4-0.9 0.7-1.3 1-1.8 2.1-3.6 3.3-5.3 0.2-0.2 0.3-0.4 0.5-0.7 1-1.4 2.1-2.7 3.2-4.1 0.4-0.4 0.8-0.9 1.2-1.3 1-1.1 2.1-2.2 3.3-3.3l1-1c1.5-1.4 3.2-2.6 4.8-3.8 0.3-0.2 0.6-0.4 1-0.6 2.2-1.5 4.4-2.8 6.7-3.9 0.2-0.1 0.3-0.1 0.5-0.2 1.7-0.8 3.5-1.5 5.3-2 0.5-0.2 1-0.3 1.5-0.5 2-0.6 4-1 6.1-1.3 2-0.3 4-0.4 5.9-0.4h1.2c1.9 0.1 3.7 0.2 5.5 0.5 0.3 0.1 0.6 0.1 0.9 0.2 1.6 0.3 3.2 0.7 4.8 1.2 0.3 0.1 0.5 0.2 0.8 0.2 1.8 0.7 3.6 1.4 5.3 2.3l-13.8-7.5c-0.5-0.2-0.9-0.5-1.4-0.7-1.3-0.6-2.6-1.2-3.9-1.6-0.3-0.1-0.5-0.2-0.8-0.2-0.8-0.3-1.7-0.6-2.5-0.8-0.7-0.2-1.5-0.3-2.2-0.5-0.3-0.1-0.6-0.1-0.9-0.2-1.8-0.3-3.6-0.5-5.5-0.5h-1.2c-1.9 0-3.9 0.1-5.9 0.4-2.1 0.3-4.1 0.8-6.1 1.3-0.5 0.1-1 0.3-1.5 0.5-1.8 0.6-3.6 1.2-5.3 2-0.1 0.1-0.3 0.1-0.4 0.2h-0.1c-2.3 1.1-4.6 2.4-6.7 3.9l-0.6 0.3c-0.1 0.1-0.2 0.2-0.4 0.3-1.7 1.2-3.3 2.5-4.8 3.8-0.1 0.1-0.2 0.1-0.3 0.2-0.3 0.2-0.5 0.5-0.7 0.7-1.1 1-2.2 2.1-3.3 3.3-0.2 0.2-0.5 0.4-0.7 0.7-0.2 0.2-0.3 0.4-0.5 0.6-1.1 1.3-2.2 2.6-3.2 4-0.1 0.2-0.3 0.3-0.4 0.5l-0.1 0.1c-1.2 1.7-2.3 3.5-3.3 5.3-0.1 0.2-0.2 0.4-0.4 0.6-0.1 0.2-0.2 0.5-0.3 0.7-1.2 2.2-2.2 4.5-3.1 6.8v0.1c-0.3 0.8-0.5 1.7-0.8 2.5-0.2 0.7-0.5 1.3-0.7 2-0.3 1-0.5 1.9-0.7 2.9-0.1 0.6-0.3 1.3-0.4 1.9-0.2 1.1-0.3 2.3-0.5 3.4-0.1 0.5-0.2 1-0.2 1.5-0.2 1.7-0.2 3.3-0.2 5 0 17.5 8.4 31.7 21.1 38.6l13.8 7.5c-12.7-6.9-21.1-21.1-21.1-38.6 0-1.7 0.1-3.4 0.2-5-0.2-0.1-0.1-0.6 0-1.2z" fill="#FFAFAF" p-id="43697"></path><path d="M337.5 381.8c25.1-3.5 45.5 15.6 45.5 42.8-0.1 27.2-20.5 52-45.6 55.6-25.1 3.5-45.5-15.6-45.5-42.8 0-27.1 20.4-52 45.6-55.6z" fill="#FFDCDC" p-id="43698"></path></svg>